<svg xmlns="http://www.w3.org/2000/svg" viewBox="0 0 306.3 175.25"><defs><style>.cls-1{fill:#cb57f4;}.cls-2{fill:none;stroke:#cb57f4;stroke-miterlimit:10;stroke-width:20px;}</style></defs><g id="Layer_2" data-name="Layer 2"><g id="Layer_1-2" data-name="Layer 1"><path class="cls-1" d="M22.75,173.7H0V23.22H22.75Z"/><path class="cls-1" d="M58.19,53c-9.62,0-14.87-5.31-14.87-15S48.57,23.1,58.19,23.1s14.88,5.09,14.88,14.83S67.82,53,58.19,53Z"/><path class="cls-1" d="M161.68,173.7V114.84c0-13.72-8.53-23.24-22.32-23.24-13.56,0-23.41,9.52-23.41,23.24V173.7H93.2V101.34c7.66-17.7,22.31-30.1,47.26-30.1,26,0,44,16.6,44,42.94V173.7Z"/><path class="cls-1" d="M305.42,131.44H227.53c3.5,15.71,16.63,23.9,29.76,23.9,10.94,0,18.38-4,24.94-8.63l11.59,16.59c-10.06,8-22.31,11.95-36.53,11.95-29.54,0-53.83-21.24-53.83-52.67,0-32.08,24.07-51.34,51.86-51.34,32.6,0,51,23.24,51,50.68A46.48,46.48,0,0,1,305.42,131.44Zm-22.32-19c-3.72-13.72-13.78-21.25-27.56-21.25-14.66,0-24.95,8-28,21.25Z"/><polyline class="cls-2" points="265.26 7.07 291.36 33.17 265.26 59.27"/><line class="cls-2" x1="93.49" y1="33.08" x2="293.45" y2="33.13"/><path class="cls-1" d="M57.82,68.89h.7A11.06,11.06,0,0,1,69.57,80v93.71a0,0,0,0,1,0,0H46.75a0,0,0,0,1,0,0V80A11.06,11.06,0,0,1,57.82,68.89Z"/></g></g></svg>