<svg xmlns="http://www.w3.org/2000/svg" viewBox="0 0 306 175"><defs><style>.cls-1{fill:#cb57f4}.cls-2{fill:none;stroke:#cb57f4;stroke-miterlimit:10;stroke-width:20px}</style></defs><g id="Layer_2" data-name="Layer 2"><g id="Layer_1-2" data-name="Layer 1"><path d="M23 174H0V23h23zM58 53c-9 0-15-5-15-15s6-15 15-15 15 5 15 15-5 15-15 15zM162 174v-59c0-14-9-23-23-23-13 0-23 9-23 23v59H93v-73c8-17 23-30 47-30 26 0 44 17 44 43v60zM305 131h-77c3 16 16 24 29 24 11 0 19-4 25-8l12 16c-10 8-22 12-37 12-29 0-54-21-54-52 0-32 25-52 52-52 33 0 51 23 51 51a46 46 0 01-1 9zm-22-19c-4-13-14-21-27-21-15 0-25 8-28 21z" class="cls-1"/><path d="M265 7l26 26-26 26M94 33h199" class="cls-2"/><path d="M58 69h1a11 11 0 0111 11v94H47V80a11 11 0 0111-11z" class="cls-1"/></g></g></svg>