<svg height="512pt" viewBox="-146 0 512 512" width="512pt" xmlns="http://www.w3.org/2000/svg"><path d="m205 417.929688h-14.128906v-323.859376h14.128906c8.285156 0 15-6.714843 15-15 0-8.28125-6.714844-15-15-15h-.003906v-49.070312c0-8.285156-6.714844-15-15-15h-160c-8.28125 0-15 6.714844-15 15v49.070312c-8.28125.003907-14.996094 6.71875-14.996094 15 0 8.285157 6.714844 15 15 15h14.128906v323.855469h-14.128906c-8.285156 0-15 6.71875-15 15 0 8.285157 6.714844 15 15 15h.015625v49.074219c0 8.285156 6.71875 15 15 15h160c8.285156 0 15-6.714844 15-15v-49.074219c8.277344-.007812 14.984375-6.71875 14.984375-14.996093 0-8.285157-6.714844-15-15-15zm-145.871094-136.367188 101.742188-101.742188v56.054688l-101.742188 101.738281zm101.742188-144.167969-101.742188 101.742188v-54.867188l90.195313-90.195312h11.546875zm-101.742188 4.449219v-47.773438h47.769532zm0 238.195312 101.742188-101.738281v56.050781l-83.578125 83.578126h-18.164063zm101.742188-3.265624v41.152343h-41.152344zm-115.875-346.773438h130v34.070312h-130zm130.019531 452h-130v-34.070312h130zm0 0"/></svg>